# xmcd
#
# Track frame offsets:
#       150
#       17374
#       45355
#       61803
#
# Disc length: 1201 seconds
#
# Revision: 0
# Processed by: cddbd v1.5.2PL0 Copyright (c) Steve Scherf et al.
# Submitted via: WaveLab 6.11
#
DISCID=2004af04
DTITLE=Sound - Chateau feat. Thomas Anders - IBIZA Baba Baya...
DYEAR=2008
DGENRE=
TTITLE0=IBIZA Baba Baya...
TTITLE1=IBIZA Baba Baya... (Club Mix
TTITLE2=For You
TTITLE3=For You (Club Mix
EXTD=
EXTT0=
EXTT1=
EXTT2=
EXTT3=
PLAYORDER=
